<?xml version="1.0" ?><!DOCTYPE svg  PUBLIC '-//W3C//DTD SVG 1.1//EN'  'http://www.w3.org/Graphics/SVG/1.1/DTD/svg11.dtd'><svg enable-background="new 0 0 24 24" height="24px" id="Layer_1" version="1.1" viewBox="0 0 24 24" width="24px" xml:space="preserve" xmlns="http://www.w3.org/2000/svg" xmlns:xlink="http://www.w3.org/1999/xlink"><g><g><path d="M19.7,23.5H4.3c-2.1,0-3.8-1.7-3.8-3.8V4.3c0-2.1,1.7-3.8,3.8-3.8h15.3c2.1,0,3.8,1.7,3.8,3.8v15.3    C23.5,21.8,21.8,23.5,19.7,23.5z M4.3,1.5c-1.6,0-2.8,1.3-2.8,2.8v15.3c0,1.6,1.3,2.8,2.8,2.8h15.3c1.6,0,2.8-1.3,2.8-2.8V4.3    c0-1.6-1.3-2.8-2.8-2.8H4.3z"/></g><g><g><g><path d="M6.6,20.4c0,0-0.1,0-0.1,0c-0.2-0.1-0.4-0.3-0.4-0.5V4.7c0-0.6,0.5-1.1,1.1-1.1h9.6c0.3,0,0.6,0.2,0.8,0.4      c0.2,0.3,0.3,0.6,0.2,1l-0.5,2.6c-0.1,0.5-0.6,0.9-1.1,0.9h-4.6c-0.2,0-0.4,0.2-0.4,0.5v0.6c0,0.2,0.2,0.5,0.4,0.5h3.9      c0.3,0,0.6,0.1,0.9,0.4c0.2,0.3,0.3,0.6,0.2,0.9c-0.1,0.4-0.5,2.5-0.5,2.7c-0.1,0.4-0.5,0.9-1.1,0.9h-3.2c-0.6,0-0.6,0-0.8,0.3      C10.5,15.7,7,20.2,7,20.2C6.9,20.3,6.7,20.4,6.6,20.4z M7.2,4.6c-0.1,0-0.1,0.1-0.1,0.1v13.8c0.9-1.1,2.3-2.9,2.9-3.6H9.8      c-0.3,0-0.5-0.2-0.5-0.5s0.2-0.5,0.5-0.5H13c0,0,0,0,0,0h2c0.1,0,0.1-0.1,0.1-0.1c0.1-0.2,0.5-2.3,0.5-2.7c0-0.1,0-0.1,0-0.1      l-4,0c-0.8,0-1.4-0.7-1.4-1.5V9c0-0.8,0.6-1.5,1.4-1.5h4.6c0.1,0,0.1-0.1,0.2-0.1l0.5-2.6c0,0,0,0,0,0c0,0,0-0.1,0-0.1L7.2,4.6z      "/></g></g></g></g></svg>